<?xml version="1.0" standalone="no"?>
<!DOCTYPE svg PUBLIC "-//W3C//DTD SVG 20010904//EN"
 "http://www.w3.org/TR/2001/REC-SVG-20010904/DTD/svg10.dtd">
<svg version="1.0" xmlns="http://www.w3.org/2000/svg"
 width="932.000000pt" height="487.000000pt" viewBox="0 0 932.000000 487.000000"
 preserveAspectRatio="xMidYMid meet">

<g transform="translate(0.000000,487.000000) scale(0.100000,-0.100000)"
fill="#000000" stroke="none">
<path d="M3110 1750 l0 -50 -100 0 -100 0 0 -50 0 -50 -50 0 -50 0 0 -750 0
-750 50 0 50 0 0 -50 0 -50 750 0 750 0 0 50 0 50 50 0 50 0 0 50 0 50 50 0
50 0 0 750 0 750 -50 0 -50 0 0 50 0 50 -700 0 -700 0 0 -50z m1200 -200 l0
-50 50 0 50 0 0 -650 0 -650 -50 0 -50 0 0 -50 0 -50 -650 0 -650 0 0 50 0 50
-50 0 -50 0 0 650 0 650 50 0 50 0 0 50 0 50 650 0 650 0 0 -50z"/>
<path d="M3110 1450 l0 -50 -50 0 -50 0 0 -550 0 -550 50 0 50 0 0 -50 0 -50
550 0 550 0 0 50 0 50 50 0 50 0 0 550 0 550 -50 0 -50 0 0 50 0 50 -550 0
-550 0 0 -50z m800 -200 l0 -50 -300 0 -300 0 0 -150 0 -150 250 0 250 0 0
-50 0 -50 -250 0 -250 0 0 -150 0 -150 300 0 300 0 0 -50 0 -50 -350 0 -350 0
0 450 0 450 350 0 350 0 0 -50z"/>
<path d="M1210 1745 l0 -45 650 0 650 0 0 -50 0 -50 50 0 50 0 0 -700 0 -700
50 0 50 0 0 750 0 750 -50 0 -50 0 0 45 0 45 -700 0 -700 0 0 -45z"/>
<path d="M5010 1745 l0 -45 650 0 650 0 0 -50 0 -50 50 0 50 0 0 -700 0 -700
50 0 50 0 0 750 0 750 -50 0 -50 0 0 45 0 45 -700 0 -700 0 0 -45z"/>
<path d="M6910 1745 l0 -45 650 0 650 0 0 -50 0 -50 50 0 50 0 0 -700 0 -700
50 0 50 0 0 750 0 750 -50 0 -50 0 0 45 0 45 -700 0 -700 0 0 -45z"/>
<path d="M1410 1150 l0 -250 250 0 250 0 0 50 0 50 -200 0 -200 0 0 200 0 200
-50 0 -50 0 0 -250z"/>
<path d="M2010 950 l0 -450 50 0 50 0 0 450 0 450 -50 0 -50 0 0 -450z"/>
<path d="M5210 950 l0 -450 350 0 350 0 0 50 0 50 -300 0 -300 0 0 400 0 400
-50 0 -50 0 0 -450z"/>
<path d="M7110 950 l0 -450 350 0 350 0 0 50 0 50 -300 0 -300 0 0 400 0 400
-50 0 -50 0 0 -450z"/>
<path d="M1410 650 l0 -150 50 0 50 0 0 150 0 150 -50 0 -50 0 0 -150z"/>
</g>
</svg>
